# xmcd
#
# Track frame offsets: 
#        150
#        17415
#        36422
#        59177
#        82587
#        106675
#        127895
#        158315
#        176262
#        193000
#        215445
#        243685
#        266040
#
# Disc length: 3808 seconds
#
# Revision: 3
# Processed by: cddbd v1.5.2PL0 Copyright (c) Steve Scherf et al.
# Submitted via: ExactAudioCopy v1.0b3
#
DISCID=a20ede0d
DTITLE=Ford, Robben - Blue Moon
DYEAR=2002
DGENRE=Blues
TTITLE0=Up The Line
TTITLE1=Hard To Please
TTITLE2=Don't Deny Your Love
TTITLE3=Make Me Your Only One
TTITLE4=Indianola
TTITLE5=My Everything
TTITLE6=The Way You Treated Me (You're Gonna Be Sorry)
TTITLE7=Sometime Love
TTITLE8=Good To Love
TTITLE9=Something For The Pain
TTITLE10=It Don't Make Sense (You Can't Make Peace)
TTITLE11=Don't Deny Your Love [Remix]
TTITLE12=The Toddle
EXTD=YEAR: 2002
EXTT0=
EXTT1=
EXTT2=
EXTT3=
EXTT4=
EXTT5=
EXTT6=
EXTT7=
EXTT8=
EXTT9=
EXTT10=
EXTT11=
EXTT12=
PLAYORDER=
